<?xml version="1.0" standalone="no"?>
<!DOCTYPE svg PUBLIC "-//W3C//DTD SVG 20010904//EN"
 "http://www.w3.org/TR/2001/REC-SVG-20010904/DTD/svg10.dtd">
<svg version="1.0" xmlns="http://www.w3.org/2000/svg"
 width="863.000000pt" height="280.000000pt" viewBox="0 0 863.000000 280.000000"
 preserveAspectRatio="xMidYMid meet">

<g transform="translate(0.000000,280.000000) scale(0.100000,-0.100000)"
fill="#000000" stroke="none">
<path d="M693 2653 c15 -2 37 -2 50 0 12 2 0 4 -28 4 -27 0 -38 -2 -22 -4z"/>
<path d="M565 2616 c-5 -3 -23 -8 -40 -12 l-30 -7 45 -12 45 -11 -50 -8 c-73
-10 -116 -26 -148 -53 -16 -13 -32 -21 -37 -18 -4 3 -13 -1 -19 -9 -9 -11 -8
-15 5 -20 13 -5 4 -18 -44 -62 -144 -130 -159 -286 -38 -410 l51 -53 76 6 c83
6 103 -1 191 -63 25 -18 49 -30 52 -27 3 4 6 26 6 49 0 54 11 61 39 24 28 -38
41 -38 41 0 l0 30 41 -21 42 -21 -5 46 -6 46 35 -30 c29 -26 53 -38 53 -26 0
2 -7 20 -16 41 -8 20 -13 39 -10 42 2 3 28 -14 56 -36 29 -23 56 -41 62 -41 6
0 9 27 6 72 l-4 71 21 -28 c11 -16 35 -45 52 -64 34 -38 40 -31 23 28 -5 19
-8 36 -6 38 1 2 24 -24 50 -58 26 -33 50 -58 54 -55 3 4 0 12 -6 18 -22 22
-14 41 13 34 24 -6 25 -4 19 21 -10 46 -51 109 -91 142 l-38 31 43 0 c47 0 48
1 28 38 -33 62 -170 161 -223 162 -7 0 -13 4 -13 8 0 11 132 -13 160 -28 16
-8 20 -8 20 4 0 25 -112 132 -152 146 -38 14 -50 34 -26 42 8 3 3 10 -12 19
-18 10 -67 14 -165 16 -77 1 -144 1 -150 -1z m-171 -285 c22 -25 13 -58 -20
-73 -46 -21 -84 40 -48 76 21 21 47 20 68 -3z"/>
<path d="M1200 2394 c-14 -2 -39 -7 -57 -10 -30 -4 -32 -7 -22 -31 9 -23 8
-25 -13 -20 l-23 6 21 -17 c47 -39 108 -183 71 -169 -11 4 -9 -7 10 -43 14
-27 27 -71 30 -97 2 -26 13 -78 25 -115 15 -49 18 -80 14 -113 -4 -25 -9 -45
-12 -45 -2 0 -18 15 -35 33 -22 22 -29 26 -24 12 21 -56 35 -125 35 -169 l0
-50 -30 47 c-32 51 -60 66 -36 20 7 -16 19 -53 25 -83 10 -47 10 -56 -4 -66
-15 -11 -14 -16 5 -56 36 -71 68 -98 114 -98 87 0 224 -49 327 -117 20 -13 63
-31 96 -39 63 -17 213 -83 213 -95 0 -4 -17 -3 -37 2 -48 11 -53 11 -53 0 0
-5 15 -12 33 -15 125 -23 279 -161 266 -238 -1 -7 21 -37 49 -66 l51 -53 27
43 c90 142 143 319 151 509 9 210 -24 367 -118 549 -114 221 -277 379 -505
487 -144 68 -261 95 -429 98 -77 2 -151 1 -165 -1z m355 -275 c4 -5 0 -18 -8
-27 -8 -9 -17 -24 -20 -32 -3 -8 -4 3 -2 25 2 22 3 41 4 43 3 6 21 1 26 -9z
m63 -6 c-5 -25 -28 -28 -28 -4 0 12 6 21 16 21 9 0 14 -7 12 -17z m-53 -75
c-15 -24 -32 -55 -38 -70 -11 -27 -31 -37 -40 -20 -3 4 1 21 9 37 8 17 12 23
10 13 -10 -37 9 -24 41 27 19 30 37 55 39 55 3 0 -7 -19 -21 -42z m399 -74
c18 -22 30 -51 32 -77 5 -49 -1 -39 -11 16 -5 32 -12 41 -41 53 -33 14 -41 24
-27 37 11 12 17 8 47 -29z m-402 -146 c-1 -4 9 -15 22 -23 23 -15 28 -15 75
10 28 14 51 30 51 35 0 6 9 10 20 10 12 0 20 -7 20 -16 0 -21 37 -81 53 -86
23 -8 208 10 222 22 12 10 16 9 21 -4 3 -9 2 -22 -4 -29 -17 -21 -31 -84 -21
-94 6 -6 4 -15 -5 -23 -13 -10 -17 -9 -22 4 -3 9 -1 22 4 29 6 7 14 32 18 56
l7 43 -39 -6 c-21 -3 -69 -8 -106 -12 -37 -3 -71 -11 -76 -18 -5 -6 -17 -42
-26 -81 l-17 -69 46 -93 c25 -51 55 -97 65 -103 11 -6 20 -20 20 -31 0 -17 -5
-20 -23 -15 -31 7 -194 -19 -213 -35 -22 -18 -42 4 -24 26 7 8 16 30 21 48 8
28 8 27 4 -10 -5 -42 -5 -42 22 -38 45 8 157 25 166 25 15 0 6 27 -39 113 -44
84 -56 98 -69 77 -9 -15 -25 -12 -25 5 0 8 7 15 15 15 16 0 56 116 57 166 0
35 -40 104 -61 104 -22 0 -111 -52 -111 -65 0 -17 71 -207 82 -222 5 -7 6 -17
3 -24 -4 -6 -14 -35 -21 -63 l-13 -51 6 45 c12 80 10 94 -14 160 -29 80 -56
143 -63 150 -3 3 -11 17 -17 33 -7 15 -19 27 -27 27 -10 0 -14 10 -14 30 l1
30 16 -22 c9 -13 15 -26 13 -30z m466 -18 c-2 -7 -10 1 -17 16 -12 27 -11 28
4 12 10 -9 16 -21 13 -28z"/>
<path d="M7080 2117 c0 -129 -2 -236 -5 -239 -3 -2 -32 9 -64 25 -47 23 -78
30 -144 34 -159 10 -296 -56 -391 -190 -88 -123 -116 -216 -116 -380 0 -181
40 -289 144 -393 89 -89 145 -109 301 -109 118 0 122 1 190 35 39 19 73 37 78
38 4 2 7 -10 7 -27 l0 -31 90 0 90 0 0 735 0 735 -90 0 -90 0 0 -233z m-93
-358 c24 -12 55 -36 68 -53 l25 -33 0 -287 0 -287 -26 -24 c-99 -92 -298 -80
-404 24 -64 62 -91 135 -98 262 -4 80 -1 109 16 166 33 109 102 191 193 233
62 28 168 27 226 -1z"/>
<path d="M4745 2183 c-33 -13 -70 -28 -82 -33 -22 -9 -23 -15 -23 -119 l0
-110 -62 -3 -63 -3 -3 -67 -3 -67 63 -3 63 -3 5 -350 c5 -338 6 -352 28 -396
31 -63 86 -117 152 -147 46 -21 69 -26 137 -25 45 1 113 6 152 13 80 13 77 8
60 108 -11 62 -12 64 -38 57 -127 -32 -170 -31 -228 5 -18 10 -42 39 -55 62
-23 42 -23 49 -23 358 l0 315 143 3 143 3 -3 67 -3 67 -142 3 -143 3 0 144 c0
80 -3 144 -7 144 -5 -1 -35 -12 -68 -26z"/>
<path d="M996 1950 c-7 -45 -11 -47 -46 -20 -33 26 -50 25 -43 -1 5 -19 3 -21
-23 -17 -16 3 -37 9 -47 13 -17 7 -18 4 -11 -30 l7 -39 -47 28 -46 27 -6 -30
c-7 -35 -12 -37 -40 -16 -29 22 -32 19 -39 -30 -7 -41 -9 -44 -28 -34 -17 10
-19 9 -12 -7 58 -140 87 -316 83 -501 -2 -73 0 -133 4 -133 4 0 15 11 24 25
21 33 27 32 55 -10 29 -43 43 -44 59 -5 7 17 14 30 17 30 2 0 27 -17 56 -39
78 -58 94 -65 101 -43 12 35 25 169 19 190 -8 34 9 25 42 -21 31 -43 116 -107
141 -107 10 0 14 16 14 61 0 52 -4 65 -30 97 -53 67 -82 145 -87 240 -5 72
-10 93 -30 120 l-25 33 29 -7 c15 -3 43 -15 62 -26 l34 -19 -7 33 c-10 48 -41
109 -82 156 -19 23 -33 42 -29 42 11 0 68 -32 112 -61 23 -16 45 -29 48 -29 9
0 -5 60 -22 93 -14 27 -16 28 -33 12 -17 -15 -19 -14 -38 9 -24 31 -30 32 -34
5 -3 -19 -6 -18 -45 15 -22 20 -43 36 -46 36 -2 0 -7 -18 -11 -40z"/>
<path d="M2927 1921 c-83 -23 -177 -70 -177 -87 0 -23 64 -144 76 -144 6 0 17
6 23 14 18 22 101 54 173 66 168 30 275 -48 290 -210 2 -27 0 -34 -12 -31 -57
13 -136 17 -200 10 -256 -29 -424 -194 -407 -398 8 -89 29 -134 91 -196 62
-63 130 -89 225 -87 114 1 204 32 285 96 37 29 39 30 50 12 42 -71 106 -106
193 -106 l43 0 0 44 c0 35 -6 50 -30 76 -16 17 -34 48 -40 68 -5 21 -10 149
-10 290 0 286 -10 354 -63 443 -37 62 -102 110 -180 135 -80 25 -247 27 -330
5z m372 -530 c20 -11 21 -20 21 -133 l0 -121 -43 -41 c-69 -66 -129 -91 -217
-90 -125 0 -183 49 -184 153 0 110 71 192 209 238 46 15 181 11 214 -6z"/>
<path d="M4193 1926 c-23 -7 -57 -23 -76 -35 -39 -24 -107 -95 -107 -112 0 -5
-4 -7 -10 -4 -5 3 -10 37 -10 76 l0 69 -90 0 -90 0 0 -520 0 -520 90 0 90 0 0
319 c0 291 2 325 20 384 23 73 86 154 144 181 44 21 126 21 171 -1 19 -9 36
-15 38 -12 2 2 18 39 37 82 22 52 30 81 23 88 -17 17 -183 21 -230 5z"/>
<path d="M5554 1920 c-75 -19 -167 -61 -180 -81 -7 -12 54 -149 67 -149 4 0
30 14 57 31 70 43 188 65 266 49 98 -20 161 -97 168 -205 2 -31 0 -39 -12 -37
-106 25 -240 17 -337 -20 -116 -43 -207 -122 -250 -218 -25 -55 -23 -194 3
-251 62 -133 193 -200 347 -179 97 14 156 37 219 85 l56 44 12 -29 c24 -59
100 -100 186 -100 l44 0 0 44 c0 35 -6 50 -29 75 -44 47 -51 96 -51 364 0 316
-15 395 -91 481 -87 100 -298 143 -475 96z m365 -530 c20 -10 21 -19 21 -132
l0 -121 -43 -42 c-69 -66 -128 -90 -217 -90 -124 1 -183 52 -183 160 0 106 89
202 220 235 47 11 174 6 202 -10z"/>
<path d="M7815 1926 c-211 -51 -339 -227 -352 -485 -10 -182 36 -340 128 -444
154 -176 477 -190 650 -29 111 102 161 234 162 427 2 290 -115 471 -340 530
-68 18 -178 18 -248 1z m241 -164 c94 -48 142 -145 151 -307 10 -170 -19 -283
-93 -365 -51 -56 -103 -80 -180 -80 -104 0 -166 31 -215 109 -36 55 -48 99
-59 203 -10 107 4 228 37 300 29 66 101 138 155 156 50 17 156 9 204 -16z"/>
<path d="M394 1854 c-96 -171 -134 -306 -141 -499 -6 -161 8 -260 58 -403 35
-99 99 -223 111 -216 12 7 90 124 83 124 -3 0 -24 -9 -46 -21 -23 -11 -43 -18
-45 -16 -3 3 23 29 56 60 37 33 56 57 48 59 -8 3 0 11 18 21 51 27 100 91 119
159 32 116 16 406 -32 553 -49 153 -114 243 -175 245 -11 0 -31 -24 -54 -66z"/>
<path d="M2451 1354 c0 -11 3 -14 6 -6 3 7 2 16 -1 19 -3 4 -6 -2 -5 -13z"/>
<path d="M1276 1278 c-7 -13 -16 -49 -19 -82 -3 -32 -8 -60 -10 -62 -9 -10
-98 37 -135 70 -43 39 -52 38 -52 -6 0 -35 -20 -119 -30 -131 -9 -10 -55 12
-119 56 -27 19 -46 26 -49 19 -2 -6 -13 -23 -24 -38 -18 -22 -23 -24 -32 -12
-6 8 -21 27 -34 43 l-22 28 -26 -24 c-26 -24 -94 -132 -94 -149 0 -5 7 -7 15
-4 28 11 15 -13 -13 -25 -15 -6 -41 -22 -57 -36 -23 -18 -26 -24 -13 -25 14 0
6 -16 -32 -68 -28 -38 -50 -73 -50 -79 0 -6 12 -8 27 -5 l28 5 -22 -24 c-12
-13 -26 -36 -32 -51 -9 -25 -6 -33 37 -82 161 -184 390 -313 632 -357 87 -16
278 -15 370 1 153 26 320 96 450 188 81 57 216 191 204 202 -5 4 -38 20 -74
36 -36 15 -69 31 -74 36 -6 4 30 8 79 8 l89 0 -35 36 c-54 57 -118 96 -204
126 l-80 27 82 1 c45 0 93 -4 107 -10 14 -5 26 -6 26 -2 0 19 -90 93 -141 116
-56 26 -196 66 -231 66 -33 0 -19 16 30 32 l47 15 -30 12 c-59 24 -188 35
-271 23 -43 -6 -80 -9 -82 -7 -7 7 91 65 109 65 71 0 -45 59 -156 79 -76 14
-72 15 -89 -11z"/>
<path d="M2451 1264 c0 -11 3 -14 6 -6 3 7 2 16 -1 19 -3 4 -6 -2 -5 -13z"/>
</g>
</svg>
