<?xml version="1.0" standalone="no"?>
<!DOCTYPE svg PUBLIC "-//W3C//DTD SVG 20010904//EN"
 "http://www.w3.org/TR/2001/REC-SVG-20010904/DTD/svg10.dtd">
<svg version="1.0" xmlns="http://www.w3.org/2000/svg"
 width="985.000000pt" height="362.000000pt" viewBox="0 0 985.000000 362.000000"
 preserveAspectRatio="xMidYMid meet">

<g transform="translate(0.000000,362.000000) scale(0.100000,-0.100000)"
fill="#000000" stroke="none">
<path d="M5177 2593 c-4 -3 -7 -296 -7 -650 l0 -643 80 0 80 0 0 339 0 339 26
31 c14 17 54 45 89 62 55 27 73 31 119 27 66 -6 116 -36 148 -93 23 -39 23
-46 26 -372 l3 -333 80 0 80 0 -3 354 -3 353 -35 69 c-58 113 -135 157 -276
156 -80 0 -174 -34 -215 -78 -12 -13 -26 -24 -31 -24 -4 0 -8 106 -8 235 l0
235 -73 0 c-41 0 -77 -3 -80 -7z"/>
<path d="M4338 2563 l-58 -4 0 -629 0 -630 85 0 85 0 0 239 0 239 153 5 c123
4 164 9 215 27 161 57 245 187 246 380 2 191 -87 298 -291 351 -79 21 -304 32
-435 22z m420 -182 c114 -51 156 -155 117 -288 -35 -119 -182 -182 -369 -159
l-56 7 0 228 c0 125 3 231 8 235 4 5 61 6 127 4 97 -4 130 -9 173 -27z"/>
<path d="M7218 2442 l-68 -26 0 -98 0 -98 -55 0 -55 0 0 -65 0 -65 55 0 55 0
0 -288 c0 -327 6 -365 67 -433 50 -55 105 -81 183 -87 65 -4 208 12 222 26 11
11 -14 132 -26 132 -6 0 -33 -7 -61 -15 -84 -26 -166 1 -202 67 -16 29 -18 66
-21 316 l-3 282 125 0 126 0 0 65 0 65 -125 0 -125 0 0 125 c0 94 -3 125 -12
124 -7 -1 -43 -13 -80 -27z"/>
<path d="M6422 2230 c-120 -18 -231 -100 -289 -214 -50 -98 -67 -273 -39 -401
31 -146 118 -261 231 -305 85 -34 254 -34 337 -1 112 44 197 150 233 290 21
81 21 245 0 326 -34 131 -112 233 -212 276 -40 17 -164 41 -198 37 -5 0 -34
-4 -63 -8z m188 -154 c94 -46 136 -157 127 -341 -6 -137 -25 -192 -86 -256
-108 -111 -286 -86 -356 50 -51 102 -59 299 -16 413 27 71 103 144 159 154 20
3 42 7 47 8 22 7 82 -7 125 -28z"/>
<path d="M8074 2230 c-221 -33 -356 -236 -341 -510 7 -122 35 -212 91 -287 74
-101 185 -153 326 -153 230 1 381 146 409 395 24 210 -37 397 -157 486 -79 58
-214 87 -328 69z m182 -150 c88 -38 134 -146 134 -315 0 -76 -5 -120 -21 -171
-50 -163 -211 -232 -346 -148 -87 54 -132 189 -120 362 16 230 171 350 353
272z"/>
<path d="M9100 2230 c-69 -12 -96 -26 -150 -76 l-50 -47 -25 57 -25 56 -55 0
-55 0 0 -460 0 -460 80 0 80 0 0 340 0 339 29 33 c83 95 254 115 324 39 48
-51 51 -75 55 -423 l3 -328 80 0 80 0 -3 353 c-3 333 -5 355 -25 405 -12 29
-33 68 -47 87 -51 66 -182 104 -296 85z"/>
</g>
</svg>
